<svg t="1617375439134" class="icon" viewBox="0 0 1024 1024" version="1.1" xmlns="http://www.w3.org/2000/svg" p-id="816" width="200" height="200" fill_color="red"><path d="M896 213.333333a42.666667 42.666667 0 0 1 42.666667 42.666667v597.333333a42.666667 42.666667 0 0 1-42.666667 42.666667H128a42.666667 42.666667 0 0 1-42.666667-42.666667V170.666667a42.666667 42.666667 0 0 1 42.666667-42.666667h316.330667l85.333333 85.333333H682.666667v85.333334h85.333333V213.333333h128z m-128 341.333334h-85.333333v85.333333h-85.333334v128h170.666667v-213.333333z m-85.333333-85.333334h-85.333334v85.333334h85.333334v-85.333334z m85.333333-85.333333h-85.333333v85.333333h85.333333V384z m-85.333333-85.333333h-85.333334v85.333333h85.333334V298.666667z" p-id="817" fill="#ffffff"></path></svg>