<?xml version="1.0" standalone="no"?><!DOCTYPE svg PUBLIC "-//W3C//DTD SVG 1.1//EN" "http://www.w3.org/Graphics/SVG/1.1/DTD/svg11.dtd"><svg class="icon" width="200px" height="200.00px" viewBox="0 0 1024 1024" version="1.1" xmlns="http://www.w3.org/2000/svg"><path d="M881.493333 829.013333a20.48 20.48 0 0 0 0-29.866666 85.333333 85.333333 0 0 1-28.16-62.293334V341.333333a256 256 0 0 0-256-256h-170.666666a256 256 0 0 0-256 256v395.52a85.333333 85.333333 0 0 1-26.88 62.293334 20.48 20.48 0 0 0 0 29.866666 85.333333 85.333333 0 0 0 58.026666 24.32h77.653334c6.4 5.973333 12.373333 11.52 19.2 17.066667l15.36 12.373333A256 256 0 0 0 473.6 938.666667h76.8a256 256 0 0 0 159.573333-55.893334l15.36-12.373333c6.826667-5.546667 12.8-11.093333 19.2-17.066667h77.653334a85.333333 85.333333 0 0 0 59.306666-24.32zM768 604.16a256 256 0 0 1-96 199.68l-15.36 12.373333a170.666667 170.666667 0 0 1-106.24 37.12h-76.8a170.666667 170.666667 0 0 1-106.24-37.12l-15.36-12.373333A256 256 0 0 1 256 604.16V415.573333a341.333333 341.333333 0 0 0 192.853333-132.693333A426.666667 426.666667 0 0 0 768 426.666667z m-152.746667 81.92a9.813333 9.813333 0 0 0-7.68-3.413333H416.426667a9.813333 9.813333 0 0 0-7.68 3.413333 10.666667 10.666667 0 0 0-2.56 8.533333 106.666667 106.666667 0 0 0 213.333333 0 10.666667 10.666667 0 0 0-4.266667-8.533333zM404.48 490.666667A63.573333 63.573333 0 0 0 341.333333 541.866667a10.666667 10.666667 0 0 0 10.24 12.8h104.96a9.386667 9.386667 0 0 0 8.106667-3.84 11.52 11.52 0 0 0 4.693333-8.96 64.426667 64.426667 0 0 0-64.853333-51.2z m213.333333 0A64.426667 64.426667 0 0 0 554.666667 541.866667a11.52 11.52 0 0 0 2.56 8.96 9.386667 9.386667 0 0 0 8.106666 3.84h104.533334a9.386667 9.386667 0 0 0 8.106666-3.84 9.813333 9.813333 0 0 0 4.693334-8.96 63.573333 63.573333 0 0 0-62.72-51.2z" /></svg>